<?xml version="1.0" encoding="utf-8"?>
<!-- Generator: Adobe Illustrator 21.1.0, SVG Export Plug-In . SVG Version: 6.00 Build 0)  -->
<svg version="1.1" id="Capa_1" xmlns="http://www.w3.org/2000/svg" xmlns:xlink="http://www.w3.org/1999/xlink" x="0px" y="0px"
     viewBox="0 0 438.5 438.5" style="enable-background:new 0 0 438.5 438.5;" xml:space="preserve">
<style type="text/css">
	.st0{fill:#FFFFFF;}
</style>
    <g>
	<path class="st0" d="M409.1,109.2c-19.6-33.6-46.2-60.2-79.8-79.8C295.7,9.8,259.1,0,219.3,0c-39.8,0-76.5,9.8-110.1,29.4
		C75.6,49,49,75.6,29.4,109.2C9.8,142.8,0,179.5,0,219.3c0,39.8,9.8,76.5,29.4,110.1c19.6,33.6,46.2,60.2,79.8,79.8
		c33.6,19.6,70.3,29.4,110.1,29.4s76.5-9.8,110.1-29.4c33.6-19.6,60.2-46.2,79.8-79.8c19.6-33.6,29.4-70.3,29.4-110.1
		C438.5,179.5,428.7,142.8,409.1,109.2z M219.3,32c47.2,0,88.4,15.6,123.6,46.8l-3.6,5c-1.4,2-5,5.9-10.7,11.6
		c-5.7,5.7-11.9,11.1-18.7,16.3c-6.8,5.1-15.9,11-27.6,17.6c-11.6,6.6-24,12.3-37.1,17.3C223.4,106.1,200,69.8,175,37.4
		C190.1,33.8,204.8,32,219.3,32z M72.5,103.1c18.3-23,40.5-40.7,66.8-53.1c23.6,31.4,46.8,67.4,69.7,107.9
		c-57.9,15.2-115.5,22.8-173,22.8C42.1,152,54.3,126.1,72.5,103.1z M44.5,286.8C36.2,265.4,32,242.9,32,219.3c0-2.7,0.1-4.7,0.3-6
		c68.9,0,133-8.8,192.1-26.6c6.1,11.8,11.1,22.4,15.1,31.7c-0.8,0.4-2,0.8-3.7,1.3c-1.7,0.5-3,0.8-3.7,1l-10.6,3.7
		c-7.2,2.7-16.7,7.2-28.4,13.7c-11.7,6.5-24.1,14.2-37.3,23.1c-13.1,8.9-26.7,20.8-40.7,35.6c-14,14.8-25.7,30.6-35.3,47.5
		C64.7,327.4,52.9,308.2,44.5,286.8z M219.3,406.6c-44.5,0-84.3-14.3-119.3-42.8l4.3,3.1c6.7-14.7,16.5-28.7,29.4-42.3
		c12.9-13.5,25.4-24.4,37.4-32.7c12-8.3,25-16.1,39.1-23.4c14.1-7.3,23.7-12,28.8-14c5.1-2,9.2-3.6,12.3-4.7l0.6-0.3h0.6
		c18.6,48.9,32,96.3,40,142.2C268.8,401.6,244.4,406.6,219.3,406.6z M376.9,320.5c-14.1,21.8-31.7,39.8-52.8,54.1
		c-7.8-43.8-20-88.4-36.5-133.9c37.9-5.9,76.8-3.1,116.8,8.3C400.1,274.8,391,298.7,376.9,320.5z M403.7,216.7
		c-1.9-0.4-4.3-0.8-7.1-1.3s-6.3-1-10.4-1.7c-4.1-0.7-8.7-1.3-13.7-1.9c-5-0.6-10.4-1.1-16.1-1.6c-5.7-0.5-11.8-0.9-18.3-1.1
		c-6.5-0.3-13-0.4-19.7-0.4c-6.7,0-13.7,0.2-21,0.6c-7.3,0.4-14.4,1-21.3,2c-0.6-1-1.3-2.5-2.1-4.7c-0.9-2.2-1.5-3.9-1.8-5
		c-3.6-8-7.8-17-12.6-27.1c13.1-5.3,25.7-11.5,37.6-18.4c11.9-6.9,21.4-13.1,28.5-18.6c7.1-5.4,13.9-11.2,20.3-17.3
		c6.4-6.1,10.5-10.3,12.4-12.7c1.9-2.4,3.7-4.7,5.4-7l0.3-0.3c27.8,33.9,42,72.9,42.5,117.1L403.7,216.7z"/>
</g>
</svg>
